Coordinates
version=1
nRows=11
nColumns=40
inDegrees=yes

Units are S.I. units (second, meters, Newtons, ...)
If the header above contains a line with 'inDegrees', this indicates whether rotational values are in degrees (yes) or radians (no).

endheader
time	pelvis_tilt	pelvis_list	pelvis_rotation	pelvis_tx	pelvis_ty	pelvis_tz	hip_flexion_r	hip_adduction_r	hip_rotation_r	knee_angle_r	knee_angle_r_beta	ankle_angle_r	subtalar_angle_r	mtp_angle_r	hip_flexion_l	hip_adduction_l	hip_rotation_l	knee_angle_l	knee_angle_l_beta	ankle_angle_l	subtalar_angle_l	mtp_angle_l	lumbar_extension	lumbar_bending	lumbar_rotation	arm_flex_r	arm_add_r	arm_rot_r	elbow_flex_r	pro_sup_r	wrist_flex_r	wrist_dev_r	arm_flex_l	arm_add_l	arm_rot_l	elbow_flex_l	pro_sup_l	wrist_flex_l	wrist_dev_l
      3.47500000	    -38.70355686	      5.28573266	      1.69817006	     -0.41191485	      0.52491474	     -0.92807064	    116.57232255	    -21.70706504	     10.15756359	    111.64737936	      1.94861437	     35.15658494	      0.00000000	      0.00000000	    110.31317126	    -17.98271528	      1.14495801	    110.16398861	      1.92272432	     27.81066216	      0.00000000	      0.00000000	    -28.50710088	     -4.93621894	     -6.33033673	    -26.48377708	    -41.75765638	     18.44210205	     99.69742377	     45.04207995	      0.00000000	      0.00000000	    -31.41026062	    -41.44122022	     -3.90804148	     72.89394219	     45.04207995	      0.00000000	      0.00000000
      3.48000000	    -38.82197296	      5.34485773	      1.73973590	     -0.40954924	      0.53079807	     -0.92771714	    115.77652226	    -21.66420305	      9.99285449	    110.86368768	      1.93493637	     35.13198822	      0.00000000	      0.00000000	    109.52734664	    -17.89035161	      0.84297307	    109.48090349	      1.91080223	     27.81093213	      0.00000000	      0.00000000	    -27.97441666	     -5.03439628	     -6.32252199	    -26.48211044	    -41.73923142	     18.44209873	     99.66531337	     45.04197542	      0.00000000	      0.00000000	    -31.40958797	    -41.39659786	     -3.89678957	     72.89583060	     45.04197542	      0.00000000	      0.00000000
      3.48500000	    -38.67692700	      5.43903119	      1.69866958	     -0.40738011	      0.53728280	     -0.92712027	    114.70303555	    -21.55680454	      9.79616437	    110.08875057	      1.92141117	     35.12444048	      0.00000000	      0.00000000	    108.41644081	    -17.83139875	      0.55539023	    108.53345222	      1.89426609	     27.81056983	      0.00000000	      0.00000000	    -27.19695821	     -5.24524033	     -6.32645217	    -26.47163802	    -41.70768526	     18.44088833	     99.61144917	     45.04178962	      0.00000000	      0.00000000	    -31.39788456	    -41.32179976	     -3.87716334	     72.89919352	     45.04178962	      0.00000000	      0.00000000
      3.49000000	    -38.49014497	      6.10030441	      1.25917776	     -0.40547072	      0.54341627	     -0.92556390	    113.85678287	    -20.87722486	      9.93492182	    109.20691319	      1.90602020	     35.10954544	      0.00000000	      0.00000000	    107.11496529	    -18.40356539	     -0.27402468	    107.82525137	      1.88190565	     27.80475245	      0.00000000	      0.00000000	    -27.31514380	     -6.10010675	     -6.35284789	    -26.33223070	    -41.57141265	     18.40616486	     99.38712424	     45.04088853	      0.00000000	      0.00000000	    -31.27155200	    -41.07122015	     -3.79382415	     72.91562400	     45.04088853	      0.00000000	      0.00000000
      3.49500000	    -38.16935191	      5.85310532	      0.87288138	     -0.40270137	      0.55141776	     -0.92441661	    112.16562079	    -20.51953122	      9.21707477	    108.15650559	      1.88768713	     35.11954311	      0.00000000	      0.00000000	    105.84382550	    -18.73026849	     -0.32683457	    106.80857432	      1.86416129	     27.79417471	      0.00000000	      0.00000000	    -27.17420538	     -6.06176902	     -5.90607168	    -26.04261357	    -41.38619254	     18.33277427	     99.10543142	     45.03977798	      0.00000000	      0.00000000	    -31.22918120	    -40.77508482	     -3.69996846	     72.93619082	     45.03977798	      0.00000000	      0.00000000
      3.50000000	    -38.02678390	      5.92322704	      0.83340093	     -0.40018846	      0.55822829	     -0.92396299	    111.05953228	    -20.50595977	      8.94995530	    107.24943445	      1.87185575	     34.95981492	      0.00000000	      0.00000000	    104.69297794	    -18.70546409	     -0.71279173	    105.84340074	      1.84731583	     27.78947946	      0.00000000	      0.00000000	    -26.48459905	     -6.22430429	     -5.75359567	    -25.98512533	    -41.33553390	     18.30930171	     99.02562335	     45.03946740	      0.00000000	      0.00000000	    -31.24953558	    -40.67694244	     -3.67454176	     72.94201418	     45.03946740	      0.00000000	      0.00000000
      3.50500000	    -37.90596193	      5.97697946	      0.82941538	     -0.39738593	      0.56534671	     -0.92350324	    109.91849912	    -20.56239105	      8.61405698	    106.30826573	      1.85542926	     34.91140805	      0.00000000	      0.00000000	    103.51393970	    -18.66841075	     -1.13985593	    104.82073430	      1.82946694	     27.78357530	      0.00000000	      0.00000000	    -25.88893209	     -6.37029297	     -5.63397298	    -25.94063930	    -41.29549912	     18.28587187	     98.95506999	     45.03921813	      0.00000000	      0.00000000	    -31.27063508	    -40.60044034	     -3.65546280	     72.94670959	     45.03921813	      0.00000000	      0.00000000
      3.51000000	    -37.22591001	      5.92280736	      0.90993822	     -0.39468737	      0.57304433	     -0.92337218	    108.21608297	    -20.83781688	      8.20440919	    105.42334939	      1.83998456	     34.87350906	      0.00000000	      0.00000000	    101.83133948	    -18.43190085	     -1.37337948	    103.75103702	      1.81079720	     27.75082936	      0.00000000	      0.00000000	    -26.18018725	     -6.38075577	     -5.47033293	    -25.73297012	    -41.17021129	     18.18236792	     98.68842344	     45.03830526	      0.00000000	      0.00000000	    -31.21859114	    -40.46116818	     -3.59270360	     72.96406632	     45.03830526	      0.00000000	      0.00000000
      3.51500000	    -37.37586264	      5.94646347	      0.91904354	     -0.39146639	      0.57968870	     -0.92301706	    107.34185926	    -20.96289537	      7.74692977	    104.44204046	      1.82285748	     34.78700688	      0.00000000	      0.00000000	    101.00012731	    -18.50875780	     -1.97729533	    102.90471538	      1.79602610	     27.74629711	      0.00000000	      0.00000000	    -25.62321579	     -6.43239283	     -5.40077277	    -25.73203594	    -41.15256014	     18.17421553	     98.66140653	     45.03821578	      0.00000000	      0.00000000	    -31.24955512	    -40.42758491	     -3.58719100	     72.96578318	     45.03821578	      0.00000000	      0.00000000
      3.52000000	    -36.84499496	      5.99197005	      0.93159712	     -0.38848317	      0.58762989	     -0.92248264	    105.75357154	    -21.06200256	      7.45292971	    103.48094963	      1.80608328	     34.68563530	      0.00000000	      0.00000000	     99.29463182	    -18.37798795	     -2.31603630	    101.50465539	      1.77159044	     27.73477786	      0.00000000	      0.00000000	    -24.71762660	     -6.58264970	     -5.27453301	    -25.72151859	    -41.11473921	     18.15415218	     98.59855500	     45.03802093	      0.00000000	      0.00000000	    -31.30225559	    -40.35550790	     -3.57418189	     72.96952773	     45.03802093	      0.00000000	      0.00000000
      3.52500000	    -36.02078841	      6.36082286	     -0.00673618	     -0.38532977	      0.59575595	     -0.91950605	    103.89116562	    -19.91622058	      7.33958920	    102.43169548	      1.78777034	     34.62910600	      0.00000000	      0.00000000	     97.31628888	    -19.61625516	     -3.38101385	    100.67140905	      1.75704755	     27.66613743	      0.00000000	      0.00000000	    -25.00231114	     -7.50646992	     -5.00040492	    -25.51586573	    -40.95065091	     18.04721589	     98.32345804	     45.03711508	      0.00000000	      0.00000000	    -31.38517790	    -40.22979603	     -3.52744544	     72.98709595	     45.03711508	      0.00000000	      0.00000000
